<svg viewBox="526.9 373.6091 169.5561 73.498" width="5000" height="2167.365255511303" xmlns="http://www.w3.org/2000/svg" xmlns:xlink="http://www.w3.org/1999/xlink" preserveAspectRatio="none"><defs></defs><style>.aa6mzmZ1FRe0filter-floo {flood-color:#4654A3;flood-opacity:0.5;}.aa7H1fk3uDA0filter-floo {flood-color:#270949;flood-opacity:0.5;}.aa8WK0JWrqxcolors-0 {fill:#4654A3;fill-opacity:1;}.abhPjKSm-Qcolors-0-floo {flood-color:#142728;flood-opacity:1;}.aD6z1nYkhcolor {fill:#270949;fill-opacity:1;}.adLQLe-xtscolors-0-floo {flood-color:#142728;flood-opacity:0.79;}.aI0hL-SFTrcolors-0-floo {flood-color:#000000;flood-opacity:1;}.aKevmHRvx00filter-floo {flood-color:#DBDBDB;flood-opacity:0.5;}.aLNa32mrO10filter-floo {flood-color:#1A0EB4;flood-opacity:0.5;}.amBTlCC8Tc0filter-floo {flood-color:#270949;flood-opacity:0.5;}.aNXQAO-UOH0filter-floo {flood-color:#270949;flood-opacity:0.5;}.ateXiBCen0colors-0 {fill:#4654A3;fill-opacity:1;}.augT7W-3NHcolor {fill:#270949;fill-opacity:1;}.aVCZd6-7ywcolor {fill:#270949;fill-opacity:1;}.awRigp-85r0filter-floo {flood-color:#4654A3;flood-opacity:0.5;}</style><defs>
      <filter
        x="-1000"
        y="-1000"
        width="5000"
        height="5000"
        id="a7H1fk3uDA"
        filterUnits="userSpaceOnUse"
        primitiveUnits="userSpaceOnUse"
        color-interpolation-filters="sRGB">
        <feMerge><feMergeNode in="SourceGraphic" /></feMerge>
      </filter>
      <filter
        x="-1000"
        y="-1000"
        width="5000"
        height="5000"
        id="mBTlCC8Tc"
        filterUnits="userSpaceOnUse"
        primitiveUnits="userSpaceOnUse"
        color-interpolation-filters="sRGB">
        <feMerge><feMergeNode in="SourceGraphic" /></feMerge>
      </filter>
      <filter
        x="-1000"
        y="-1000"
        width="5000"
        height="5000"
        id="NXQAO-UOH"
        filterUnits="userSpaceOnUse"
        primitiveUnits="userSpaceOnUse"
        color-interpolation-filters="sRGB">
        <feMerge><feMergeNode in="SourceGraphic" /></feMerge>
      </filter>
      <filter
        x="-1000"
        y="-1000"
        width="5000"
        height="5000"
        id="wRigp-85r"
        filterUnits="userSpaceOnUse"
        primitiveUnits="userSpaceOnUse"
        color-interpolation-filters="sRGB">
        <feMerge><feMergeNode in="SourceGraphic" /></feMerge>
      </filter>
      <filter
        x="-1000"
        y="-1000"
        width="5000"
        height="5000"
        id="a6mzmZ1FRe"
        filterUnits="userSpaceOnUse"
        primitiveUnits="userSpaceOnUse"
        color-interpolation-filters="sRGB">
        <feMerge><feMergeNode in="SourceGraphic" /></feMerge>
      </filter></defs><g filter="url(#a7H1fk3uDA)"><g opacity="1" transform="rotate(0 526.9 404.313)">
<svg width="17.4568" height="35" x="526.9" y="404.313" version="1.1" preserveAspectRatio="none" viewBox="1.28 -32.4 16.16 32.4">
  <g transform="matrix(1 0 0 1 0 0)" class="aD6z1nYkhcolor"><path d="M1.28 0L8.08-32.40L10.60-32.40L17.44 0L15.24 0L13.56-8.96L5.16-8.96L3.44 0L1.28 0ZM5.48-10.56L13.28-10.56L9.36-29.76L5.48-10.56Z"/></g>
</svg>
</g></g><g filter="url(#mBTlCC8Tc)"><g opacity="1" transform="rotate(0 550.44 404.313)">
<svg width="43.1581" height="35" x="550.44" y="404.313" version="1.1" preserveAspectRatio="none" viewBox="2.84 -32.72 40.84 33.12">
  <g transform="matrix(1 0 0 1 0 0)" class="aVCZd6-7ywcolor"><path d="M2.84 0L2.84-32.40L10.60-32.40Q14.72-32.40 16.50-30.16Q18.28-27.92 18.28-23.80L18.28-23.80Q18.28-20.04 16.42-17.68Q14.56-15.32 10.64-15.32L10.64-15.32L5.88-15.32L5.88 0L2.84 0ZM5.88-17.60L9.76-17.60Q12.76-17.60 14.02-18.98Q15.28-20.36 15.28-23.80L15.28-23.80Q15.28-26.32 14.80-27.66Q14.32-29 13.16-29.56Q12-30.12 9.80-30.12L9.80-30.12L5.88-30.12L5.88-17.60Z M29.04 0.40Q25.24 0.40 23.24-1.94Q21.24-4.28 20.96-8.40L20.96-8.40L23.64-9.20Q24-5.76 25.18-3.92Q26.36-2.08 29.08-2.08L29.08-2.08Q33.64-2.08 33.64-6.76L33.64-6.76Q33.64-8.76 32.70-10.28Q31.76-11.80 29.68-13.76L29.68-13.76L23.96-19.24Q22.40-20.68 21.70-22.26Q21-23.84 21-25.76L21-25.76Q21-29.08 22.98-30.90Q24.96-32.72 28.32-32.72L28.32-32.72Q31.92-32.72 33.84-30.80Q35.76-28.88 36.08-24.52L36.08-24.52L33.48-23.84Q33.24-27.12 32.10-28.72Q30.96-30.32 28.32-30.32L28.32-30.32Q26.24-30.32 25-29.24Q23.76-28.16 23.76-26.04L23.76-26.04Q23.76-24.68 24.28-23.60Q24.80-22.52 26.04-21.32L26.04-21.32L31.76-15.92Q33.96-13.84 35.22-11.66Q36.48-9.48 36.48-6.96L36.48-6.96Q36.48-3.44 34.44-1.52Q32.40 0.40 29.04 0.40L29.04 0.40Z M40.64 0L40.64-32.40L43.68-32.40L43.68 0L40.64 0Z"/></g>
</svg>
</g></g><g filter="url(#wRigp-85r)"><g opacity="1" transform="rotate(0 601.5981 373.6091)">
<svg width="94.858" height="73.498" x="601.5981" y="373.6091" version="1.1" preserveAspectRatio="none" viewBox="22.81558609008789 28.571460723876953 54.4886589050293 42.21955490112305">
  <g transform="matrix(1 0 0 1 0 0)" class="ateXiBCen0colors-0"><g><path d="M57.372,56.863c-0.795-0.444-1.79-0.332-2.808,0.309c-0.691,0.435-1.342,1.096-1.889,1.891l-2.55-1.472   c-0.005-0.003-0.011-0.003-0.016-0.005l-3.305-1.914c0.371-0.842,0.581-1.77,0.581-2.747c0-3.505-2.654-6.398-6.058-6.783v-5.297   c0-0.009-0.005-0.016-0.005-0.024v-1.437c0.994-0.098,1.919-0.359,2.651-0.774c1.046-0.592,1.615-1.418,1.602-2.326   c-0.006-0.411-0.341-0.739-0.75-0.739c-0.003,0-0.007,0-0.011,0c-0.415,0.006-0.745,0.347-0.739,0.761   c0.005,0.324-0.309,0.697-0.84,0.998c-0.512,0.29-1.185,0.491-1.913,0.579v-0.621c0-0.414-0.336-0.75-0.75-0.75   s-0.75,0.336-0.75,0.75v0.634c-0.707-0.071-1.376-0.245-1.883-0.513c-0.54-0.285-0.865-0.648-0.87-0.972   c-0.006-0.41-0.341-0.739-0.75-0.739c-0.003,0-0.007,0-0.011,0c-0.414,0.006-0.745,0.347-0.739,0.761   c0.014,0.907,0.607,1.716,1.67,2.277c0.722,0.381,1.621,0.612,2.583,0.688v2.947c0,0.009,0.005,0.016,0.005,0.024v3.765   c-1.12,0.119-2.16,0.511-3.053,1.107l-3.401-4.047c-0.001-0.001-0.002-0.001-0.003-0.002l-0.939-1.119   c0.698-0.714,1.239-1.509,1.534-2.297c0.421-1.126,0.326-2.125-0.268-2.811c-0.271-0.314-0.746-0.348-1.058-0.077   c-0.313,0.271-0.348,0.745-0.077,1.058c0.212,0.245,0.211,0.733-0.002,1.305c-0.206,0.551-0.592,1.138-1.093,1.673l-0.399-0.476   c-0.267-0.316-0.739-0.359-1.057-0.093s-0.359,0.74-0.093,1.057l0.413,0.492c-1.413,0.979-2.692,1.062-3.069,0.626   c-0.271-0.314-0.746-0.348-1.058-0.077c-0.313,0.271-0.348,0.745-0.077,1.058c0.443,0.511,1.104,0.758,1.872,0.758   c0.997,0,2.17-0.439,3.285-1.231l1.902,2.266c0.002,0.003,0.005,0.003,0.007,0.006l2.433,2.896   c-0.751,0.785-1.317,1.746-1.628,2.817l-3.714-0.655c-0.007-0.001-0.011-0.006-0.018-0.007l-2.92-0.515   c0.186-2.458-0.756-4.475-2.31-4.726c-0.41-0.07-0.794,0.212-0.859,0.621c-0.066,0.409,0.212,0.794,0.621,0.859   c0.572,0.092,1.177,1.243,1.075,2.985l-0.612-0.108c-0.408-0.072-0.797,0.201-0.869,0.608c-0.072,0.408,0.201,0.797,0.608,0.869   l0.633,0.111c-0.452,1.658-1.371,2.541-1.949,2.453c-0.41-0.071-0.794,0.212-0.859,0.621s0.213,0.794,0.622,0.859   c0.106,0.018,0.212,0.025,0.318,0.025c1.424,0,2.774-1.516,3.341-3.699l1.405,0.247c0.006,0.001,0.011,0.005,0.017,0.007   l5.219,0.919c-0.009,0.14-0.021,0.28-0.021,0.422c0,0.984,0.213,1.917,0.589,2.763l-3.279,1.898   c-0.005,0.003-0.01,0.002-0.015,0.005l-2.568,1.483c-1.438-2.004-3.455-2.944-4.807-2.135c-0.355,0.212-0.472,0.673-0.259,1.028   c0.213,0.355,0.674,0.472,1.029,0.259c0.496-0.296,1.7,0.195,2.742,1.596l-0.539,0.311c-0.359,0.207-0.481,0.666-0.274,1.024   c0.139,0.24,0.391,0.375,0.65,0.375c0.127,0,0.256-0.032,0.375-0.101l0.552-0.319c0.296,0.651,0.473,1.313,0.495,1.889   c0.023,0.61-0.129,1.073-0.407,1.24c-0.355,0.212-0.472,0.673-0.259,1.028c0.141,0.235,0.39,0.365,0.645,0.365   c0.131,0,0.264-0.034,0.384-0.106c0.779-0.465,1.183-1.383,1.137-2.585c-0.031-0.816-0.278-1.711-0.693-2.583l1.234-0.712   c0.006-0.003,0.012-0.002,0.018-0.005l4.601-2.662c0.648,0.873,1.496,1.584,2.479,2.068l-1.307,3.588   c-0.001,0.002-0.002,0.003-0.003,0.004L35.23,65.43c-2.39-0.61-4.538-0.034-5.055,1.454c-0.136,0.392,0.071,0.818,0.462,0.954   c0.391,0.136,0.819-0.071,0.955-0.462c0.19-0.546,1.429-0.942,3.126-0.539l-0.212,0.583c-0.142,0.39,0.059,0.82,0.448,0.962   c0.084,0.03,0.171,0.045,0.256,0.045c0.306,0,0.594-0.189,0.705-0.493l0.218-0.599c0.645,0.309,1.206,0.702,1.593,1.129   c0.41,0.452,0.592,0.905,0.485,1.211c-0.136,0.392,0.071,0.818,0.462,0.954c0.082,0.028,0.165,0.042,0.246,0.042   c0.311,0,0.601-0.194,0.708-0.504c0.298-0.857,0.017-1.82-0.791-2.711c-0.549-0.605-1.313-1.132-2.191-1.532l0.494-1.358   c0-0.001,0.001-0.002,0.002-0.003l1.822-5.002c0.512,0.123,1.043,0.195,1.592,0.195c0.56,0,1.102-0.075,1.624-0.203l1.824,5.01   c0.001,0.002,0.002,0.004,0.003,0.006l0.499,1.372c-0.9,0.432-1.68,0.994-2.226,1.634c-0.781,0.914-1.033,1.885-0.709,2.733   c0.114,0.3,0.398,0.483,0.701,0.483c0.089,0,0.179-0.016,0.267-0.049c0.387-0.147,0.581-0.581,0.434-0.968   c-0.115-0.304,0.052-0.762,0.449-1.227c0.382-0.447,0.945-0.866,1.599-1.197l0.213,0.584c0.111,0.305,0.398,0.493,0.705,0.493   c0.085,0,0.172-0.015,0.256-0.045c0.389-0.142,0.59-0.572,0.448-0.962l-0.218-0.599c0.693-0.179,1.375-0.239,1.947-0.159   c0.605,0.082,1.035,0.312,1.15,0.615c0.147,0.389,0.581,0.582,0.968,0.435s0.581-0.581,0.434-0.969   c-0.323-0.848-1.157-1.404-2.348-1.567c-0.811-0.111-1.734-0.023-2.664,0.234l-1.007-2.767c-0.001-0.002-0.003-0.004-0.003-0.006   l-1.311-3.601c0.976-0.486,1.818-1.197,2.46-2.068l4.625,2.676c0.006,0.003,0.013,0.002,0.018,0.005l1.249,0.721   c-0.412,0.909-0.648,1.841-0.655,2.683c-0.011,1.202,0.42,2.107,1.213,2.55c0.115,0.064,0.241,0.095,0.364,0.095   c0.264,0,0.519-0.139,0.656-0.385c0.201-0.362,0.071-0.818-0.29-1.021c-0.283-0.157-0.449-0.616-0.444-1.227   c0.005-0.588,0.168-1.271,0.456-1.945l0.537,0.31c0.118,0.068,0.247,0.101,0.374,0.101c0.26,0,0.512-0.135,0.65-0.375   c0.207-0.358,0.084-0.817-0.274-1.024l-0.552-0.319c0.416-0.582,0.901-1.066,1.389-1.373c0.516-0.326,0.992-0.428,1.277-0.268   c0.361,0.203,0.818,0.071,1.021-0.29C57.863,57.521,57.733,57.065,57.372,56.863z M40.556,58.255c-2.939,0-5.33-2.391-5.33-5.33   c0-2.939,2.391-5.33,5.33-5.33s5.33,2.391,5.33,5.33C45.886,55.864,43.495,58.255,40.556,58.255z"></path><path d="M71.623,47.225c-0.19,0.038-0.466-0.14-0.727-0.456c-0.248-0.301-0.456-0.71-0.613-1.165l0.288-0.051   c0.408-0.072,0.681-0.461,0.608-0.869c-0.071-0.408-0.459-0.681-0.868-0.608l-0.306,0.054c-0.019-0.47,0.023-0.915,0.14-1.279   c0.126-0.392,0.319-0.657,0.507-0.692c0.406-0.078,0.673-0.471,0.595-0.878c-0.078-0.407-0.473-0.671-0.878-0.596   c-0.759,0.146-1.346,0.752-1.652,1.708c-0.189,0.589-0.256,1.28-0.203,2l-2.12,0.374c0,0-0.001,0-0.001,0l-3.787,0.668   c-0.408,0.072-0.681,0.461-0.608,0.869c0.063,0.364,0.38,0.62,0.737,0.62c0.043,0,0.087-0.003,0.131-0.011l4.944-0.872   c0,0,0.001,0,0.001-0.001l0.977-0.172c0.218,0.718,0.545,1.362,0.952,1.855c0.543,0.659,1.181,1.007,1.826,1.007   c0.113,0,0.228-0.011,0.341-0.033c0.406-0.078,0.673-0.471,0.595-0.878C72.424,47.413,72.03,47.146,71.623,47.225z"></path><path d="M76.42,33.005c-0.099-0.014-0.343-0.251-0.544-0.688c0.351-0.113,0.58-0.459,0.514-0.832   c-0.066-0.38-0.41-0.631-0.786-0.606c0.026-0.47,0.16-0.775,0.236-0.82c0.406-0.078,0.673-0.471,0.595-0.878   c-0.078-0.407-0.473-0.674-0.878-0.596c-0.596,0.114-1.07,0.595-1.303,1.319c-0.117,0.365-0.164,0.786-0.153,1.223l-1.229,0.216   c0,0-0.001,0-0.001,0l-2.56,0.451c-0.408,0.072-0.681,0.461-0.608,0.869c0.063,0.364,0.38,0.62,0.737,0.62   c0.043,0,0.087-0.003,0.131-0.011l3.343-0.589c0,0,0,0,0.001,0l0.458-0.081c0.408,1.151,1.196,1.903,2.042,1.903   c0.091,0,0.182-0.009,0.273-0.026c0.406-0.078,0.681-0.472,0.603-0.878C77.213,33.194,76.827,32.924,76.42,33.005z"></path><path d="M58.613,41.556c-0.221,0.273-1.088,0.207-2.06-0.378l0.187-0.223c0.267-0.317,0.226-0.79-0.092-1.057   c-0.316-0.265-0.79-0.226-1.057,0.093l-0.198,0.236c-0.315-0.346-0.568-0.713-0.712-1.065c-0.154-0.379-0.177-0.706-0.057-0.853   c0.261-0.321,0.213-0.794-0.108-1.055c-0.321-0.261-0.794-0.214-1.056,0.108c-0.486,0.599-0.547,1.439-0.168,2.367   c0.233,0.571,0.625,1.143,1.127,1.659l-0.626,0.746c0,0,0,0,0,0l-3.22,3.837c-0.266,0.317-0.225,0.79,0.093,1.057   c0.141,0.118,0.312,0.175,0.482,0.175c0.214,0,0.426-0.091,0.574-0.268l2.467-2.94c0,0,0,0,0,0l1.395-1.663   c0.87,0.57,1.762,0.879,2.532,0.879c0.685,0,1.272-0.232,1.661-0.709c0.261-0.321,0.213-0.794-0.108-1.055   C59.347,41.186,58.876,41.234,58.613,41.556z"></path></g></g>
</svg>
</g></g><g filter="url(#NXQAO-UOH)"><g opacity="1" transform="rotate(0 667.7754 409.313)">
<svg width="14.0371" height="30" x="667.7754" y="409.313" version="1.1" preserveAspectRatio="none" viewBox="2.84 -32.4 15.16 32.4">
  <g transform="matrix(1 0 0 1 0 0)" class="augT7W-3NHcolor"><path d="M2.84 0L2.84-32.40L5.04-32.40L15.36-7.24L15.36-32.40L18-32.40L18 0L15.84 0L5.48-25.44L5.48 0L2.84 0Z"/></g>
</svg>
</g></g><g filter="url(#a6mzmZ1FRe)"><g opacity="1" transform="rotate(0 550.44 443.313)">
<svg width="43.1581" height="3.7941" x="550.44" y="443.313" version="1.1" preserveAspectRatio="none" viewBox="4 46 91 8">
  <g transform="matrix(1 0 0 1 0 0)" class="aa8WK0JWrqxcolors-0"><polygon points="28.75,48.114 32.75,46 30.636,50 32.75,54 28.75,51.886 24.75,54 26.864,50 24.75,46 "></polygon><polygon points="91,48.114 95,46 92.886,50 95,54 91,51.886 87,54 89.114,50 87,46 "></polygon><polygon points="49.5,48.114 53.5,46 51.386,50 53.5,54 49.5,51.886 45.5,54 47.614,50 45.5,46 "></polygon><polygon points="70.25,48.114 74.25,46 72.136,50 74.25,54 70.25,51.886 66.25,54 68.364,50 66.25,46 "></polygon><polygon points="8,48.114 12,46 9.886,50 12,54 8,51.886 4,54 6.114,50 4,46 "></polygon></g>
</svg>
</g></g></svg>